<svg xmlns="http://www.w3.org/2000/svg" width="32" height="32" viewBox="0 0 32 32">
  <g id="Grupo_100" data-name="Grupo 100" transform="translate(-9 -386)">
    <rect id="Retângulo_58" data-name="Retângulo 58" width="32" height="32" transform="translate(9 386)" fill="none"/>
    <g id="exit_to_app-black-18dp" transform="translate(13 390)">
      <path id="Caminho_229" data-name="Caminho 229" d="M0,0H24V24H0Z" fill="none"/>
      <path id="Caminho_230" data-name="Caminho 230" d="M10.09,15.59,11.5,17l5-5-5-5L10.09,8.41,12.67,11H3v2h9.67ZM19,3H5A2,2,0,0,0,3,5V9H5V5H19V19H5V15H3v4a2,2,0,0,0,2,2H19a2.006,2.006,0,0,0,2-2V5A2.006,2.006,0,0,0,19,3Z" fill="#ddd"/>
    </g>
  </g>
</svg>
