<svg xmlns="http://www.w3.org/2000/svg" width="32" height="32" viewBox="0 0 32 32">
  <g id="Grupo_99" data-name="Grupo 99" transform="translate(-8 -336)">
    <g id="contact_mail-black-18dp" transform="translate(12 340)">
      <path id="Caminho_226" data-name="Caminho 226" d="M0,0H24V24H0Z" fill="none"/>
      <path id="Caminho_227" data-name="Caminho 227" d="M21,8V7L18,9,15,7V8l3,2Zm1-5H2A2.006,2.006,0,0,0,0,5V19a2.006,2.006,0,0,0,2,2H22a2,2,0,0,0,1.99-2L24,5A2.006,2.006,0,0,0,22,3ZM8,6A3,3,0,1,1,5,9,3,3,0,0,1,8,6Zm6,12H2V17c0-2,4-3.1,6-3.1S14,15,14,17Zm8-6H14V6h8Z" fill="#ddd"/>
      <path id="Caminho_228" data-name="Caminho 228" d="M0,0H24V24H0Z" fill="none"/>
    </g>
    <rect id="Retângulo_58" data-name="Retângulo 58" width="32" height="32" transform="translate(8 336)" fill="none"/>
  </g>
</svg>
